<?xml version="1.0" encoding="UTF-8" standalone="no"?>
<svg width="64px" height="64px" viewBox="0 0 64 64" version="1.1" xmlns="http://www.w3.org/2000/svg" xmlns:xlink="http://www.w3.org/1999/xlink">
    <!-- Generator: Sketch 39.1 (31720) - http://www.bohemiancoding.com/sketch -->
    <title>favicon</title>
    <desc>Created with Sketch.</desc>
    <defs></defs>
    <g id="Page-1" stroke="none" stroke-width="1" fill="none" fill-rule="evenodd" opacity="0.87">
        <g id="favicon" stroke="#000000" stroke-width="3">
            <g id="Group" transform="translate(6.000000, 11.000000)">
                <path d="M1.57920406,22.59635 L5.85782172,37.1043922" id="Path-1"></path>
                <path d="M0,21.5293646 C15.1896658,21.2533549 19.0959093,17.9433716 15.9543675,32.8061234" id="Path-2"></path>
                <path d="M7.89602032,35.0150831 C10.8323266,34.0145285 13.7686328,33.0139739 16.704939,32.0134192" id="Path-3"></path>
                <path d="M20.5296528,19.4573269 L26.3183708,38.9681423" id="Path-7"></path>
                <path d="M22.1088569,17.8878154 C51.6460649,18.6530501 57.5505849,15.080884 48.5572421,40.9982824" id="Path-8"></path>
                <path d="M30.0048772,30.4439077 C35.4907886,31.0275645 40.9767001,31.6112214 46.4626115,32.1948783" id="Path-11"></path>
                <path d="M37.9008975,25.7353731 L39.1593145,38.1660919" id="Path-13"></path>
                <path d="M30.0048772,42.6811818 C35.3777277,42.264284 40.7505783,41.8473862 46.1234288,41.4304885" id="Path-17"></path>
                <path d="M22.1088569,6.58241633 C31.7603251,6.16551856 41.4117933,5.74862079 51.0632615,5.33172303" id="Path-4"></path>
                <path d="M30.0048772,0.623188406 L34.2834949,11.803214" id="Path-5"></path>
                <path d="M45.5096885,0.623188406 L39.4801016,13.3147941" id="Path-6"></path>
            </g>
        </g>
    </g>
</svg>